<?xml version="1.0" encoding="UTF-8" standalone="no"?>
<svg width="180px" height="180px" viewBox="0 0 180 180" version="1.1" xmlns="http://www.w3.org/2000/svg" xmlns:xlink="http://www.w3.org/1999/xlink">
    <!-- Generator: Sketch 3.8.3 (29802) - http://www.bohemiancoding.com/sketch -->
    <title>180 - iPhone 6 Plus</title>
    <desc>Created with Sketch.</desc>
    <defs></defs>
    <g id="Page-1" stroke="none" stroke-width="1" fill="none" fill-rule="evenodd">
        <g id="180---iPhone-6-Plus" fill="#4990E2">
            <g id="Logo" transform="translate(9.000000, 40.000000)">
                <g id="Page-1">
                    <g>
                        <g id="Mobile-Portrait">
                            <g id="Logo">
                                <path d="M159.924519,91.4816823 C151.95055,96.8601359 142.341952,100 132,100 C104.385763,100 82,77.6142375 82,50 C82,22.3857625 104.385763,0 132,0 C143.127683,0 153.406345,3.63509071 161.713286,9.78257226 C158.571198,9.26913265 155.323466,9 152,9 C124.385763,9 102,27.5801829 102,50.5 C102,73.4198171 124.385763,92 152,92 C154.696695,92 157.343528,91.8228066 159.924519,91.4816823 L159.924519,91.4816823 Z" id="Combined-Shape"></path>
                                <path d="M72,72.713648 L72,56.2831351 C69.7722708,59.7234214 65.9005016,62 61.502455,62 L31.497545,62 C24.5953415,62 19,56.4050773 19,49.5 C19,42.5964406 24.6019069,37 31.497545,37 L61.502455,37 C65.903603,37 69.7733943,39.2748383 72,42.713648 L72,26.2831351 C69.7722708,29.7234214 65.9005016,32 61.502455,32 L31.497545,32 C24.5953415,32 19,26.4050773 19,19.5 C19,12.5964406 24.6019069,7 31.497545,7 L61.502455,7 C62.3637803,7 63.2047546,7.08712706 64.0170439,7.25305461 C59.3451789,2.76159542 52.9981359,0 46.0063477,0 L25.9936523,0 C11.648066,0 0,11.6390221 0,25.9964834 L0,74.0035166 C0,88.357554 11.6377546,100 25.9936523,100 L46.0063477,100 C53.6637871,100 60.5526357,96.6837518 65.3116199,91.4079716 C64.1103919,91.7924455 62.8304136,92 61.502455,92 L31.497545,92 C24.5953415,92 19,86.4050773 19,79.5 C19,72.5964406 24.6019069,67 31.497545,67 L61.502455,67 C65.903603,67 69.7733943,69.2748383 72,72.713648 L72,72.713648 Z" id="Combined-Shape"></path>
                            </g>
                        </g>
                    </g>
                </g>
            </g>
        </g>
    </g>
</svg>